<svg xmlns="http://www.w3.org/2000/svg" width="48" height="44" viewBox="0 0 48 44" role="img" aria-label="Half heart">
  <defs>
    <clipPath id="left-half">
      <rect x="0" y="0" width="24" height="44"/>
    </clipPath>
  </defs>
  <path d="M24 39C14 31 6 24 4 15C2 7 7 2 14 2C18 2 22 4 24 8C26 4 30 2 34 2C41 2 46 7 44 15C42 24 34 31 24 39Z" fill="#fecaca" stroke="#7f1d1d" stroke-width="3" stroke-linejoin="round"/>
  <path d="M24 39C14 31 6 24 4 15C2 7 7 2 14 2C18 2 22 4 24 8C26 4 30 2 34 2C41 2 46 7 44 15C42 24 34 31 24 39Z" fill="#ef4444" clip-path="url(#left-half)"/>
  <path d="M24 7V38" stroke="#7f1d1d" stroke-width="2" stroke-linecap="round" opacity="0.45"/>
  <path d="M12 9C15 6 20 7 22 12" fill="none" stroke="#fecaca" stroke-width="3" stroke-linecap="round"/>
</svg>
